<?xml version="1.0" standalone="no"?>
<!DOCTYPE svg PUBLIC "-//W3C//DTD SVG 20010904//EN"
 "http://www.w3.org/TR/2001/REC-SVG-20010904/DTD/svg10.dtd">
<svg version="1.0" xmlns="http://www.w3.org/2000/svg"
 width="512.000000pt" height="512.000000pt" viewBox="0 0 512.000000 512.000000"
 preserveAspectRatio="xMidYMid meet">

<g transform="translate(0.000000,512.000000) scale(0.100000,-0.100000)"
fill="#FFFFFF" stroke="none">
<path d="M697 5106 c-55 -20 -103 -61 -134 -113 -22 -39 -28 -62 -31 -134 l-4
-87 -103 -4 c-93 -3 -106 -6 -151 -33 -61 -38 -110 -116 -119 -189 -3 -28 -5
-775 -3 -1659 l3 -1609 29 -25 c31 -27 66 -25 98 4 17 15 18 112 20 1660 l3
1645 33 29 32 29 1541 0 1541 0 29 -29 29 -29 0 -2174 c0 -2044 -1 -2174 -18
-2194 -9 -12 -27 -27 -39 -33 -33 -17 -3059 -15 -3093 2 -14 7 -33 28 -42 47
-16 31 -18 73 -18 408 0 359 -1 373 -20 392 -27 27 -81 26 -106 -1 -18 -20
-19 -42 -19 -413 0 -306 3 -399 14 -430 17 -49 73 -111 125 -139 l41 -22 1553
-3 c1052 -1 1566 1 1593 8 58 16 119 68 151 129 24 45 28 65 28 131 l0 78 103
4 c95 3 108 6 153 33 61 38 110 116 119 189 3 28 5 800 3 1714 l-3 1664 -24
19 c-30 25 -62 24 -95 -2 l-26 -20 -2 -1695 -3 -1696 -33 -29 c-29 -26 -40
-29 -97 -29 l-65 0 0 2028 c0 1365 -3 2039 -10 2064 -17 59 -69 120 -129 151
l-55 27 -1408 0 -1408 0 0 60 c0 70 17 111 55 128 20 9 391 12 1555 12 l1530
0 32 -29 33 -29 3 -341 3 -340 26 -21 c32 -25 64 -26 94 -1 l24 19 0 354 c0
345 -1 354 -22 394 -29 54 -101 117 -151 132 -61 19 -3113 16 -3165 -2z"/>
<path d="M685 4353 c-46 -24 -66 -45 -86 -88 -17 -38 -19 -82 -19 -725 0 -441
4 -698 10 -722 15 -52 53 -94 103 -113 37 -14 120 -15 749 -13 l706 3 39 31
c77 62 73 14 73 802 0 574 -3 709 -14 735 -16 39 -61 82 -99 96 -19 8 -258 11
-730 11 -621 -1 -705 -3 -732 -17z m1420 -823 l0 -685 -679 -3 c-537 -2 -681
0 -688 10 -9 16 -11 1352 -1 1361 3 4 313 6 687 5 l681 -3 0 -685z"/>
<path d="M1323 4086 c-59 -19 -104 -49 -153 -102 -65 -70 -85 -123 -85 -224 0
-76 4 -93 32 -151 18 -35 44 -75 57 -88 l26 -24 -40 -43 c-21 -23 -51 -66 -67
-96 -26 -50 -28 -62 -31 -204 l-4 -151 27 -22 c36 -27 57 -27 91 3 27 23 28
26 34 159 5 130 6 137 35 178 81 114 254 121 343 14 36 -45 52 -95 52 -169 l0
-56 -95 0 c-82 0 -98 -3 -115 -20 -30 -30 -27 -83 6 -109 24 -19 40 -21 166
-21 136 0 139 1 165 26 25 25 25 26 21 162 -3 122 -7 143 -30 194 -15 32 -47
79 -72 106 l-46 49 29 27 c16 15 42 51 57 79 27 48 29 61 29 152 0 84 -4 108
-23 146 -58 118 -165 189 -295 195 -43 2 -89 -2 -114 -10z m185 -157 c63 -31
102 -95 102 -169 0 -66 -22 -112 -74 -154 -30 -25 -48 -31 -100 -34 -78 -5
-134 20 -172 78 -108 163 68 364 244 279z"/>
<path d="M2440 3980 c-22 -22 -26 -60 -10 -90 19 -35 63 -40 395 -40 332 0
376 5 395 40 16 30 12 68 -10 90 -19 19 -33 20 -385 20 -352 0 -366 -1 -385
-20z"/>
<path d="M4322 3613 c-18 -9 -45 -32 -60 -51 l-27 -35 -3 -1109 -2 -1108 135
-269 c142 -283 153 -299 224 -308 27 -3 45 1 71 19 29 19 57 67 173 296 l137
273 0 1072 c0 707 -4 1085 -10 1109 -13 44 -52 93 -91 113 -44 23 -500 21
-547 -2z m493 -293 l0 -155 -217 -3 -218 -2 0 160 0 160 218 -2 217 -3 0 -155z
m5 -1110 l0 -800 -220 0 -220 0 0 800 0 800 220 0 220 0 0 -800z m-136 -1122
l-86 -173 -84 165 c-45 91 -83 168 -83 173 -1 4 76 7 169 7 l170 0 -86 -172z"/>
<path d="M2445 3555 c-32 -31 -33 -74 -2 -103 23 -22 28 -22 379 -22 344 0
356 1 382 21 34 27 35 71 1 104 l-24 25 -356 0 -356 0 -24 -25z"/>
<path d="M2464 3116 c-48 -21 -60 -80 -24 -116 19 -19 33 -20 385 -20 352 0
366 1 385 20 38 38 22 100 -31 119 -49 17 -675 14 -715 -3z"/>
<path d="M603 2374 c-20 -20 -24 -31 -19 -57 13 -67 -93 -62 1317 -65 l1280
-2 24 24 c32 32 33 75 2 104 l-23 22 -1278 0 -1277 0 -26 -26z"/>
<path d="M634 1970 c-26 -10 -54 -48 -54 -71 0 -9 9 -28 21 -43 l20 -26 1284
0 1284 0 21 22 c25 27 26 69 1 99 l-19 24 -1269 2 c-702 1 -1278 -2 -1289 -7z"/>
<path d="M603 1524 c-20 -20 -24 -31 -19 -57 3 -18 16 -40 27 -49 20 -17 97
-18 1296 -18 l1274 0 24 25 c34 33 33 77 -1 104 -27 21 -27 21 -1301 21
l-1274 0 -26 -26z"/>
<path d="M1316 1181 c-72 -72 -81 -79 -100 -68 -15 8 -96 12 -271 12 -247 0
-251 0 -289 -24 -69 -43 -76 -72 -76 -336 0 -220 1 -233 23 -275 16 -33 34
-51 67 -68 42 -21 56 -22 274 -22 212 0 233 2 272 21 26 12 53 36 66 57 22 35
23 48 26 259 l4 222 82 88 c46 48 88 98 95 110 24 46 -14 103 -69 103 -19 0
-47 -22 -104 -79z m-254 -268 c-77 -87 -170 -178 -176 -172 -2 2 -33 50 -69
105 -36 56 -70 105 -76 109 -31 19 16 25 191 25 l190 0 -60 -67z m94 -350 c-4
-10 -34 -13 -117 -13 l-111 0 113 122 114 121 3 -108 c1 -60 0 -115 -2 -122z
m-341 15 l17 -28 -51 0 -51 0 0 77 0 78 33 -50 c19 -28 42 -62 52 -77z"/>
<path d="M1516 819 c-34 -27 -36 -77 -3 -107 l23 -22 821 0 c815 0 820 0 847
21 34 27 35 71 1 104 l-24 25 -819 0 c-814 0 -819 0 -846 -21z"/>
</g>
</svg>
